<svg width="16" height="16" viewBox="0 0 16 16" fill="none" xmlns="http://www.w3.org/2000/svg">
<circle cx="8" cy="8" r="8" fill="#0D6EFD"/>
<path fill-rule="evenodd" clip-rule="evenodd" d="M4.17838 3.31885C4.28774 3.20966 4.41905 3.12495 4.56362 3.07035C4.70819 3.01574 4.86271 2.99249 5.01694 3.00212C5.17118 3.01175 5.32161 3.05405 5.45826 3.12622C5.59491 3.19839 5.71466 3.29877 5.80958 3.42072L6.93142 4.86192C7.13704 5.12629 7.20954 5.47065 7.12829 5.79564L6.78643 7.16435C6.76875 7.23524 6.76971 7.3095 6.7892 7.37991C6.80869 7.45033 6.84606 7.5145 6.89767 7.56621L8.43325 9.10179C8.48502 9.15351 8.5493 9.19094 8.61984 9.21044C8.69037 9.22993 8.76475 9.23083 8.83574 9.21304L10.2038 8.87117C10.3642 8.83107 10.5316 8.82796 10.6934 8.86206C10.8551 8.89617 11.007 8.9666 11.1375 9.06804L12.5787 10.1893C13.0969 10.5924 13.1444 11.358 12.6806 11.8211L12.0344 12.4673C11.5719 12.9298 10.8807 13.1329 10.2363 12.906C8.58711 12.3258 7.08971 11.3816 5.8552 10.1436C4.6173 8.90931 3.67315 7.41213 3.09279 5.76314C2.86655 5.11942 3.06967 4.42756 3.53215 3.96508L4.17838 3.31885Z" fill="white"/>
</svg>
